<svg xmlns="http://www.w3.org/2000/svg" xmlns:xlink="http://www.w3.org/1999/xlink" width="2000" zoomAndPan="magnify" viewBox="0 0 1500 1499.999933" height="2000" preserveAspectRatio="xMidYMid meet" version="1.0"><defs><clipPath id="de6a863ee9"><path d="M 611.484375 535.074219 L 873.984375 535.074219 L 873.984375 797.574219 L 611.484375 797.574219 Z M 611.484375 535.074219 " clip-rule="nonzero"/></clipPath></defs><path stroke-linecap="butt" transform="matrix(1.899279, 0, 0, 1.899279, -96.569138, -148.322585)" fill-opacity="1" fill="#ffffff" fill-rule="nonzero" stroke-linejoin="miter" d="M 437.019703 453.800091 C 402.078397 696.910461 422.232018 773.32927 597.859948 864.980012 C 613.215283 868.338606 638.648456 865.940492 630.970789 844.826392 C 431.830645 730.146761 442.270463 703.555664 455.729519 450.926878 C 412.106875 1219.687017 1158.580594 318.526705 466.19813 420.69542 C 1177.979405 354.418207 419.768089 -282.435367 443.967241 397.516391 C 455.906395 -287.252163 -289.55337 431.647356 418.157692 421.538668 C -257.242586 407.7999 386.431011 1169.838738 437.01559 453.804204 Z M 437.019703 453.800091 " stroke="#000000" stroke-width="0.312" stroke-opacity="1" stroke-miterlimit="4"/><path fill="#ffffff" d="M 721.734375 528.828125 C 690.800781 402.515625 706.269531 117.671875 501.34375 68.6875 C 213.925781 60.957031 119.835938 316.164062 149.484375 439.882812 C 221.660156 622.90625 487.175781 604.859375 679.210938 617.75 " fill-opacity="1" fill-rule="evenodd"/><path fill="#ffffff" d="M 757.800781 505.714844 C 792.601562 325.269531 800.335938 82.953125 1005.277344 33.988281 C 1292.695312 26.257812 1394.515625 273.714844 1345.554688 397.453125 C 1242.445312 580.476562 1015.589844 608.824219 823.554688 621.722656 " fill-opacity="1" fill-rule="evenodd"/><path fill="#ffffff" d="M 716.605469 752.390625 C 686.5 877.8125 666.753906 1226.375 467.308594 1275.015625 C 230.125 1332.960938 96.019531 1029.289062 124.867188 906.421875 C 195.113281 724.691406 503.773438 676.875 690.683594 664.074219 " fill-opacity="1" fill-rule="evenodd"/><path fill="#ffffff" d="M 780.992188 772.351562 C 811.925781 898.664062 757.792969 1237.636719 962.726562 1286.621094 C 1250.144531 1294.355469 1363.566406 942.492188 1333.921875 818.753906 C 1261.742188 635.730469 1023.292969 657.640625 835.132812 664.085938 " fill-opacity="1" fill-rule="evenodd"/><g clip-path="url(#de6a863ee9)"><path fill="#242021" d="M 873.621094 666.140625 C 873.621094 668.285156 873.570312 670.429688 873.464844 672.574219 C 873.359375 674.714844 873.203125 676.855469 872.992188 678.988281 C 872.78125 681.125 872.519531 683.25 872.203125 685.375 C 871.890625 687.496094 871.523438 689.609375 871.105469 691.710938 C 870.683594 693.816406 870.214844 695.90625 869.695312 697.988281 C 869.171875 700.070312 868.601562 702.136719 867.976562 704.1875 C 867.355469 706.242188 866.683594 708.277344 865.960938 710.296875 C 865.238281 712.316406 864.464844 714.316406 863.644531 716.300781 C 862.824219 718.28125 861.957031 720.242188 861.039062 722.179688 C 860.121094 724.121094 859.15625 726.035156 858.144531 727.925781 C 857.132812 729.820312 856.078125 731.683594 854.976562 733.523438 C 853.871094 735.363281 852.726562 737.175781 851.53125 738.960938 C 850.339844 740.742188 849.105469 742.496094 847.828125 744.21875 C 846.550781 745.941406 845.230469 747.632812 843.871094 749.289062 C 842.511719 750.949219 841.109375 752.574219 839.667969 754.160156 C 838.226562 755.75 836.75 757.304688 835.234375 758.820312 C 833.714844 760.335938 832.164062 761.816406 830.574219 763.257812 C 828.984375 764.699219 827.359375 766.097656 825.703125 767.457031 C 824.042969 768.820312 822.355469 770.140625 820.632812 771.417969 C 818.90625 772.695312 817.15625 773.929688 815.371094 775.121094 C 813.589844 776.3125 811.777344 777.460938 809.9375 778.5625 C 808.097656 779.664062 806.230469 780.722656 804.339844 781.734375 C 802.445312 782.746094 800.53125 783.710938 798.59375 784.625 C 796.652344 785.542969 794.691406 786.414062 792.710938 787.234375 C 790.730469 788.054688 788.730469 788.824219 786.710938 789.546875 C 784.691406 790.269531 782.652344 790.945312 780.601562 791.566406 C 778.546875 792.1875 776.480469 792.761719 774.402344 793.28125 C 772.320312 793.804688 770.226562 794.273438 768.125 794.691406 C 766.019531 795.109375 763.90625 795.476562 761.785156 795.792969 C 759.664062 796.105469 757.535156 796.367188 755.402344 796.578125 C 753.265625 796.789062 751.128906 796.945312 748.984375 797.050781 C 746.84375 797.15625 744.699219 797.210938 742.554688 797.210938 C 740.410156 797.210938 738.265625 797.15625 736.121094 797.050781 C 733.980469 796.945312 731.839844 796.789062 729.707031 796.578125 C 727.570312 796.367188 725.445312 796.105469 723.320312 795.792969 C 721.199219 795.476562 719.085938 795.109375 716.984375 794.691406 C 714.878906 794.273438 712.789062 793.804688 710.707031 793.28125 C 708.625 792.761719 706.558594 792.1875 704.507812 791.566406 C 702.453125 790.945312 700.417969 790.269531 698.398438 789.546875 C 696.378906 788.824219 694.378906 788.054688 692.394531 787.234375 C 690.414062 786.414062 688.453125 785.542969 686.515625 784.625 C 684.574219 783.710938 682.660156 782.746094 680.769531 781.734375 C 678.875 780.722656 677.011719 779.664062 675.171875 778.5625 C 673.332031 777.460938 671.519531 776.3125 669.734375 775.121094 C 667.953125 773.929688 666.199219 772.695312 664.476562 771.417969 C 662.753906 770.140625 661.0625 768.820312 659.40625 767.457031 C 657.746094 766.097656 656.121094 764.699219 654.535156 763.257812 C 652.945312 761.816406 651.390625 760.335938 649.875 758.820312 C 648.359375 757.304688 646.878906 755.75 645.4375 754.160156 C 643.996094 752.574219 642.597656 750.949219 641.238281 749.289062 C 639.875 747.632812 638.554688 745.941406 637.277344 744.21875 C 636 742.496094 634.765625 740.742188 633.574219 738.960938 C 632.382812 737.175781 631.234375 735.363281 630.132812 733.523438 C 629.03125 731.683594 627.972656 729.820312 626.960938 727.925781 C 625.949219 726.035156 624.988281 724.121094 624.070312 722.179688 C 623.152344 720.242188 622.285156 718.28125 621.460938 716.300781 C 620.640625 714.316406 619.871094 712.316406 619.148438 710.296875 C 618.425781 708.277344 617.75 706.242188 617.128906 704.1875 C 616.507812 702.136719 615.933594 700.070312 615.414062 697.988281 C 614.890625 695.90625 614.421875 693.816406 614.003906 691.710938 C 613.585938 689.609375 613.21875 687.496094 612.902344 685.375 C 612.589844 683.25 612.328125 681.125 612.117188 678.988281 C 611.90625 676.855469 611.75 674.714844 611.644531 672.574219 C 611.539062 670.429688 611.484375 668.285156 611.484375 666.140625 C 611.484375 663.996094 611.539062 661.851562 611.644531 659.710938 C 611.75 657.566406 611.90625 655.429688 612.117188 653.292969 C 612.328125 651.160156 612.589844 649.03125 612.902344 646.910156 C 613.21875 644.789062 613.585938 642.675781 614.003906 640.570312 C 614.421875 638.46875 614.890625 636.375 615.414062 634.292969 C 615.933594 632.214844 616.507812 630.148438 617.128906 628.09375 C 617.75 626.042969 618.425781 624.003906 619.148438 621.984375 C 619.871094 619.964844 620.640625 617.964844 621.460938 615.984375 C 622.285156 614.003906 623.152344 612.042969 624.070312 610.101562 C 624.988281 608.164062 625.949219 606.25 626.960938 604.355469 C 627.972656 602.464844 629.03125 600.597656 630.132812 598.757812 C 631.234375 596.917969 632.382812 595.109375 633.574219 593.324219 C 634.765625 591.539062 636 589.789062 637.277344 588.0625 C 638.554688 586.339844 639.875 584.652344 641.238281 582.992188 C 642.597656 581.335938 643.996094 579.710938 645.4375 578.121094 C 646.878906 576.53125 648.359375 574.980469 649.875 573.460938 C 651.390625 571.945312 652.945312 570.46875 654.535156 569.027344 C 656.121094 567.585938 657.746094 566.183594 659.40625 564.824219 C 661.0625 563.464844 662.753906 562.144531 664.476562 560.867188 C 666.199219 559.589844 667.953125 558.355469 669.734375 557.164062 C 671.519531 555.96875 673.332031 554.824219 675.171875 553.71875 C 677.011719 552.617188 678.875 551.5625 680.769531 550.550781 C 682.660156 549.539062 684.574219 548.574219 686.515625 547.65625 C 688.453125 546.742188 690.414062 545.871094 692.394531 545.050781 C 694.378906 544.230469 696.378906 543.457031 698.398438 542.734375 C 700.417969 542.011719 702.453125 541.339844 704.507812 540.71875 C 706.558594 540.09375 708.625 539.523438 710.707031 539 C 712.789062 538.480469 714.878906 538.011719 716.984375 537.59375 C 719.085938 537.171875 721.199219 536.808594 723.320312 536.492188 C 725.445312 536.175781 727.570312 535.914062 729.707031 535.703125 C 731.839844 535.496094 733.980469 535.335938 736.121094 535.230469 C 738.265625 535.125 740.410156 535.074219 742.554688 535.074219 C 744.699219 535.074219 746.84375 535.125 748.984375 535.230469 C 751.128906 535.335938 753.265625 535.496094 755.402344 535.703125 C 757.535156 535.914062 759.664062 536.175781 761.785156 536.492188 C 763.90625 536.808594 766.019531 537.171875 768.125 537.59375 C 770.226562 538.011719 772.320312 538.480469 774.402344 539 C 776.480469 539.523438 778.546875 540.09375 780.601562 540.71875 C 782.652344 541.339844 784.691406 542.011719 786.710938 542.734375 C 788.730469 543.457031 790.730469 544.230469 792.710938 545.050781 C 794.691406 545.871094 796.652344 546.742188 798.59375 547.65625 C 800.53125 548.574219 802.445312 549.539062 804.339844 550.550781 C 806.230469 551.5625 808.097656 552.617188 809.9375 553.71875 C 811.777344 554.824219 813.589844 555.96875 815.371094 557.164062 C 817.15625 558.355469 818.910156 559.589844 820.632812 560.867188 C 822.355469 562.144531 824.042969 563.464844 825.703125 564.824219 C 827.359375 566.183594 828.984375 567.585938 830.574219 569.027344 C 832.164062 570.46875 833.714844 571.945312 835.234375 573.460938 C 836.75 574.980469 838.226562 576.53125 839.667969 578.121094 C 841.109375 579.710938 842.511719 581.335938 843.871094 582.992188 C 845.230469 584.652344 846.550781 586.339844 847.828125 588.0625 C 849.105469 589.789062 850.339844 591.539062 851.53125 593.324219 C 852.726562 595.109375 853.871094 596.917969 854.976562 598.757812 C 856.078125 600.597656 857.132812 602.464844 858.144531 604.355469 C 859.15625 606.25 860.121094 608.164062 861.039062 610.101562 C 861.957031 612.042969 862.824219 614.003906 863.644531 615.984375 C 864.464844 617.964844 865.238281 619.964844 865.960938 621.984375 C 866.683594 624.003906 867.355469 626.042969 867.976562 628.09375 C 868.601562 630.148438 869.171875 632.214844 869.695312 634.292969 C 870.214844 636.375 870.683594 638.46875 871.105469 640.570312 C 871.523438 642.675781 871.890625 644.789062 872.203125 646.910156 C 872.519531 649.03125 872.78125 651.160156 872.992188 653.292969 C 873.203125 655.429688 873.359375 657.566406 873.464844 659.710938 C 873.570312 661.851562 873.621094 663.996094 873.621094 666.140625 Z M 873.621094 666.140625 " fill-opacity="1" fill-rule="nonzero"/></g></svg>