<svg xmlns="http://www.w3.org/2000/svg" xmlns:xlink="http://www.w3.org/1999/xlink" width="2000" zoomAndPan="magnify" viewBox="0 0 1500 1499.999933" height="2000" preserveAspectRatio="xMidYMid meet" version="1.0"><defs><clipPath id="7352204c4e"><path d="M 0.320312 0.960938 L 1259.601562 0.960938 L 1259.601562 1486.558594 L 0.320312 1486.558594 Z M 0.320312 0.960938 " clip-rule="nonzero"/></clipPath><clipPath id="5659d34a91"><path d="M 499.484375 523.074219 L 761.625 523.074219 L 761.625 785.210938 L 499.484375 785.210938 Z M 499.484375 523.074219 " clip-rule="nonzero"/></clipPath><clipPath id="186d2c055d"><rect x="0" width="1260" y="0" height="1487"/></clipPath></defs><g transform="matrix(1, 0, 0, 1, 112, 12)"><g clip-path="url(#186d2c055d)"><path fill="#242021" d="M 621.449219 701.570312 C 555.085938 1163.300781 593.363281 1308.445312 926.929688 1482.515625 C 956.09375 1488.894531 1004.398438 1484.335938 989.8125 1444.234375 C 611.59375 1226.425781 631.421875 1175.925781 656.984375 696.109375 C 574.128906 2156.199219 1991.890625 444.644531 676.867188 638.695312 C 2028.734375 512.816406 588.683594 -696.746094 634.644531 594.671875 C 657.320312 -705.894531 -758.515625 659.496094 585.625 640.292969 C -697.148438 614.199219 525.363281 2061.523438 621.441406 701.578125 Z M 621.449219 701.570312 " fill-opacity="1" fill-rule="nonzero"/><g clip-path="url(#7352204c4e)"><path stroke-linecap="butt" transform="matrix(1.899277, 0, 0, 1.899277, -208.572889, -160.322938)" fill="none" stroke-linejoin="miter" d="M 437.019936 453.800603 C 402.078605 696.909092 422.23224 773.330013 597.860297 864.980821 C 613.215643 868.339417 638.648834 865.939244 630.969105 844.825129 C 431.830874 730.145416 442.270699 703.556357 455.729765 450.925332 C 412.105034 1219.686025 1158.57929 318.525064 466.198384 420.695909 C 1177.978115 354.418648 419.76831 -282.435385 443.96748 397.516864 C 455.906642 -287.252184 -289.55366 431.647853 418.157911 421.5371 C -257.242853 407.798323 386.429151 1169.837709 437.015823 453.804717 Z M 437.019936 453.800603 " stroke="#000000" stroke-width="0.312" stroke-opacity="1" stroke-miterlimit="4"/></g><path fill="#242021" d="M 609.730469 516.828125 C 578.796875 390.515625 594.265625 105.671875 389.339844 56.6875 C 101.921875 48.957031 7.832031 304.164062 37.476562 427.882812 C 109.65625 610.90625 375.171875 592.859375 567.207031 605.75 " fill-opacity="1" fill-rule="evenodd"/><path fill="#242021" d="M 645.796875 493.710938 C 680.597656 313.265625 688.332031 70.953125 893.273438 21.988281 C 1180.691406 14.253906 1282.511719 261.714844 1233.546875 385.453125 C 1130.4375 568.476562 903.585938 596.824219 711.550781 609.71875 " fill-opacity="1" fill-rule="evenodd"/><path fill="#242021" d="M 604.601562 740.390625 C 574.496094 865.8125 554.75 1214.375 355.304688 1263.015625 C 118.121094 1320.960938 -15.984375 1017.285156 12.863281 894.421875 C 83.109375 712.691406 391.769531 664.875 578.675781 652.074219 " fill-opacity="1" fill-rule="evenodd"/><path fill="#242021" d="M 668.988281 760.351562 C 699.921875 886.664062 645.789062 1225.636719 850.71875 1274.621094 C 1138.136719 1282.351562 1251.5625 930.488281 1221.914062 806.75 C 1149.738281 623.730469 911.289062 645.640625 723.128906 652.085938 " fill-opacity="1" fill-rule="evenodd"/><g clip-path="url(#5659d34a91)"><path fill="#d9d9d9" d="M 761.605469 654.132812 C 761.605469 656.277344 761.550781 658.421875 761.445312 660.5625 C 761.339844 662.707031 761.183594 664.84375 760.972656 666.980469 C 760.761719 669.113281 760.5 671.242188 760.1875 673.363281 C 759.871094 675.484375 759.503906 677.597656 759.085938 679.703125 C 758.667969 681.804688 758.199219 683.898438 757.675781 685.976562 C 757.15625 688.058594 756.582031 690.125 755.960938 692.175781 C 755.339844 694.230469 754.664062 696.265625 753.941406 698.285156 C 753.21875 700.304688 752.449219 702.304688 751.628906 704.289062 C 750.808594 706.269531 749.9375 708.230469 749.019531 710.167969 C 748.105469 712.105469 747.140625 714.023438 746.128906 715.914062 C 745.117188 717.804688 744.0625 719.671875 742.957031 721.511719 C 741.855469 723.351562 740.707031 725.164062 739.515625 726.945312 C 738.324219 728.730469 737.089844 730.480469 735.8125 732.203125 C 734.535156 733.925781 733.214844 735.617188 731.855469 737.277344 C 730.496094 738.933594 729.09375 740.558594 727.652344 742.148438 C 726.214844 743.734375 724.734375 745.289062 723.21875 746.804688 C 721.703125 748.324219 720.148438 749.800781 718.558594 751.242188 C 716.96875 752.683594 715.347656 754.082031 713.6875 755.441406 C 712.03125 756.804688 710.339844 758.125 708.617188 759.402344 C 706.894531 760.679688 705.140625 761.914062 703.359375 763.105469 C 701.574219 764.296875 699.761719 765.445312 697.921875 766.546875 C 696.082031 767.648438 694.21875 768.707031 692.324219 769.71875 C 690.433594 770.726562 688.519531 771.691406 686.578125 772.609375 C 684.640625 773.527344 682.679688 774.394531 680.699219 775.214844 C 678.71875 776.035156 676.71875 776.808594 674.699219 777.53125 C 672.679688 778.253906 670.640625 778.925781 668.589844 779.550781 C 666.535156 780.171875 664.46875 780.742188 662.390625 781.265625 C 660.308594 781.785156 658.21875 782.253906 656.113281 782.675781 C 654.007812 783.09375 651.898438 783.460938 649.773438 783.773438 C 647.652344 784.089844 645.527344 784.351562 643.390625 784.5625 C 641.257812 784.769531 639.117188 784.929688 636.976562 785.035156 C 634.832031 785.140625 632.691406 785.191406 630.542969 785.191406 C 628.398438 785.191406 626.257812 785.140625 624.113281 785.035156 C 621.972656 784.929688 619.832031 784.769531 617.699219 784.5625 C 615.5625 784.351562 613.4375 784.089844 611.3125 783.773438 C 609.191406 783.460938 607.078125 783.09375 604.976562 782.675781 C 602.871094 782.253906 600.78125 781.785156 598.699219 781.265625 C 596.621094 780.742188 594.554688 780.171875 592.5 779.550781 C 590.449219 778.925781 588.410156 778.253906 586.390625 777.53125 C 584.371094 776.808594 582.371094 776.035156 580.390625 775.214844 C 578.410156 774.394531 576.449219 773.527344 574.507812 772.609375 C 572.570312 771.691406 570.65625 770.726562 568.765625 769.71875 C 566.871094 768.707031 565.007812 767.648438 563.167969 766.546875 C 561.328125 765.445312 559.515625 764.296875 557.730469 763.105469 C 555.949219 761.914062 554.195312 760.679688 552.472656 759.402344 C 550.75 758.125 549.058594 756.804688 547.402344 755.441406 C 545.742188 754.082031 544.121094 752.683594 542.53125 751.242188 C 540.941406 749.800781 539.386719 748.324219 537.871094 746.804688 C 536.355469 745.289062 534.875 743.734375 533.4375 742.148438 C 531.996094 740.558594 530.59375 738.933594 529.234375 737.277344 C 527.875 735.617188 526.554688 733.925781 525.277344 732.203125 C 524 730.480469 522.765625 728.730469 521.574219 726.945312 C 520.382812 725.164062 519.234375 723.351562 518.132812 721.511719 C 517.027344 719.671875 515.972656 717.804688 514.960938 715.914062 C 513.949219 714.023438 512.984375 712.105469 512.070312 710.167969 C 511.152344 708.230469 510.28125 706.269531 509.460938 704.289062 C 508.640625 702.304688 507.871094 700.304688 507.148438 698.285156 C 506.425781 696.265625 505.75 694.230469 505.128906 692.175781 C 504.507812 690.125 503.933594 688.058594 503.414062 685.976562 C 502.890625 683.898438 502.421875 681.804688 502.003906 679.703125 C 501.585938 677.597656 501.21875 675.484375 500.902344 673.363281 C 500.589844 671.242188 500.328125 669.113281 500.117188 666.980469 C 499.90625 664.84375 499.75 662.707031 499.644531 660.5625 C 499.539062 658.421875 499.484375 656.277344 499.484375 654.132812 C 499.484375 651.988281 499.539062 649.84375 499.644531 647.703125 C 499.75 645.558594 499.90625 643.421875 500.117188 641.285156 C 500.328125 639.152344 500.589844 637.023438 500.902344 634.902344 C 501.21875 632.78125 501.585938 630.667969 502.003906 628.5625 C 502.421875 626.460938 502.890625 624.367188 503.414062 622.289062 C 503.933594 620.207031 504.507812 618.140625 505.128906 616.089844 C 505.75 614.035156 506.425781 612 507.148438 609.980469 C 507.871094 607.960938 508.640625 605.960938 509.460938 603.980469 C 510.28125 601.996094 511.152344 600.035156 512.070312 598.097656 C 512.984375 596.160156 513.949219 594.242188 514.960938 592.351562 C 515.972656 590.460938 517.027344 588.59375 518.132812 586.753906 C 519.234375 584.914062 520.382812 583.105469 521.574219 581.320312 C 522.765625 579.535156 524 577.785156 525.277344 576.0625 C 526.554688 574.339844 527.875 572.648438 529.234375 570.988281 C 530.59375 569.332031 531.996094 567.707031 533.4375 566.117188 C 534.875 564.53125 536.355469 562.976562 537.871094 561.460938 C 539.386719 559.941406 540.941406 558.464844 542.53125 557.023438 C 544.121094 555.582031 545.742188 554.183594 547.402344 552.824219 C 549.058594 551.460938 550.75 550.144531 552.472656 548.863281 C 554.195312 547.585938 555.949219 546.351562 557.730469 545.160156 C 559.515625 543.96875 561.328125 542.820312 563.167969 541.71875 C 565.007812 540.617188 566.871094 539.558594 568.765625 538.546875 C 570.65625 537.539062 572.570312 536.574219 574.507812 535.65625 C 576.449219 534.738281 578.410156 533.871094 580.390625 533.050781 C 582.371094 532.230469 584.371094 531.457031 586.390625 530.734375 C 588.410156 530.011719 590.449219 529.339844 592.5 528.714844 C 594.554688 528.09375 596.621094 527.523438 598.699219 527 C 600.78125 526.480469 602.871094 526.011719 604.976562 525.589844 C 607.082031 525.171875 609.191406 524.808594 611.3125 524.492188 C 613.4375 524.175781 615.5625 523.914062 617.699219 523.703125 C 619.832031 523.496094 621.972656 523.335938 624.113281 523.230469 C 626.257812 523.125 628.398438 523.074219 630.542969 523.074219 C 632.691406 523.074219 634.832031 523.125 636.976562 523.230469 C 639.117188 523.335938 641.257812 523.496094 643.390625 523.703125 C 645.527344 523.914062 647.652344 524.175781 649.773438 524.492188 C 651.898438 524.808594 654.007812 525.171875 656.113281 525.589844 C 658.21875 526.011719 660.308594 526.480469 662.390625 527 C 664.46875 527.523438 666.535156 528.09375 668.589844 528.714844 C 670.640625 529.339844 672.679688 530.011719 674.699219 530.734375 C 676.71875 531.457031 678.71875 532.230469 680.699219 533.050781 C 682.679688 533.871094 684.640625 534.738281 686.578125 535.65625 C 688.519531 536.574219 690.433594 537.539062 692.324219 538.546875 C 694.21875 539.558594 696.082031 540.617188 697.921875 541.71875 C 699.761719 542.820312 701.574219 543.96875 703.359375 545.160156 C 705.140625 546.351562 706.894531 547.585938 708.617188 548.863281 C 710.339844 550.144531 712.03125 551.460938 713.6875 552.824219 C 715.347656 554.183594 716.96875 555.582031 718.558594 557.023438 C 720.148438 558.464844 721.703125 559.941406 723.21875 561.460938 C 724.734375 562.976562 726.214844 564.53125 727.652344 566.117188 C 729.09375 567.707031 730.496094 569.332031 731.855469 570.988281 C 733.214844 572.648438 734.535156 574.339844 735.8125 576.0625 C 737.089844 577.785156 738.324219 579.535156 739.515625 581.320312 C 740.707031 583.105469 741.855469 584.914062 742.957031 586.753906 C 744.0625 588.59375 745.117188 590.460938 746.128906 592.351562 C 747.140625 594.242188 748.105469 596.160156 749.019531 598.097656 C 749.9375 600.035156 750.808594 601.996094 751.628906 603.980469 C 752.449219 605.960938 753.21875 607.960938 753.941406 609.980469 C 754.664062 612 755.339844 614.035156 755.960938 616.089844 C 756.582031 618.140625 757.15625 620.207031 757.675781 622.289062 C 758.199219 624.367188 758.667969 626.460938 759.085938 628.5625 C 759.503906 630.667969 759.871094 632.78125 760.1875 634.902344 C 760.5 637.023438 760.761719 639.152344 760.972656 641.285156 C 761.183594 643.421875 761.339844 645.558594 761.445312 647.703125 C 761.550781 649.84375 761.605469 651.988281 761.605469 654.132812 Z M 761.605469 654.132812 " fill-opacity="1" fill-rule="nonzero"/></g></g></g></svg>